    <svg width="3392px" height="440px" viewBox="0 0 3392 440" version="1.1" xmlns="http://www.w3.org/2000/svg" xmlns:xlink="http://www.w3.org/1999/xlink">
        <g id="Page-1" stroke="none" stroke-width="1" fill="none" fill-rule="evenodd">
            <g id="monsoon" fill="#1B1926">
                <path d="M502.415,3.326 C555.191264,3.326 594.650703,17.2528607 620.7945,45.107 C646.938297,72.9611393 660.01,117.18503 660.01,177.78 L660.01,427 L532.468,427 L532.468,177.78 C532.468,157.744566 528.070044,142.473886 519.274,131.9675 C510.477956,121.461114 495.329441,116.208 473.828,116.208 C447.439868,116.208 420.56347,127.935883 393.198,151.392 C393.686669,156.76736 393.931,165.563272 393.931,177.78 L393.931,427 L266.389,427 L266.389,177.78 C266.389,157.744566 261.991044,142.473886 253.195,131.9675 C244.398956,121.461114 229.250441,116.208 207.749,116.208 C181.849537,116.208 155.21747,127.447221 127.852,149.926 L127.852,427 L0.31,427 L0.31,12.122 L127.852,12.122 L127.852,44.374 C144.955419,30.2025958 162.180747,19.818533 179.5285,13.2215 C196.876253,6.62446702 215.811897,3.326 236.336,3.326 C301.328992,3.326 345.797214,24.0941257 369.742,65.631 C391.73211,44.1295592 413.111063,28.3702168 433.8795,18.3525 C454.647937,8.33478324 477.492875,3.326 502.415,3.326 Z M925.559,439.461 C877.669427,439.461 837.110499,429.80993 803.881,410.5075 C770.6515,391.20507 745.607584,364.939499 728.7485,331.71 C711.889415,298.480501 703.46,261.097874 703.46,219.561 C703.46,178.512795 711.889415,141.374499 728.7485,108.145 C745.607584,74.9155005 770.6515,48.6499298 803.881,29.3475 C837.110499,10.0450702 877.669427,0.394 925.559,0.394 C972.959903,0.394 1013.2745,10.0450702 1046.504,29.3475 C1079.7335,48.6499298 1104.65525,74.9155005 1121.27,108.145 C1137.88475,141.374499 1146.192,178.512795 1146.192,219.561 C1146.192,261.097874 1137.88475,298.480501 1121.27,331.71 C1104.65525,364.939499 1079.7335,391.20507 1046.504,410.5075 C1013.2745,429.80993 972.959903,439.461 925.559,439.461 Z M925.559,330.977 C954.390477,330.977 976.258092,321.448095 991.1625,302.39 C1006.06691,283.331905 1013.519,255.722514 1013.519,219.561 C1013.519,183.888155 1006.06691,156.523095 991.1625,137.465 C976.258092,118.406905 954.390477,108.878 925.559,108.878 C896.238853,108.878 874.004742,118.406905 858.856,137.465 C843.707257,156.523095 836.133,183.888155 836.133,219.561 C836.133,255.722514 843.707257,283.331905 858.856,302.39 C874.004742,321.448095 896.238853,330.977 925.559,330.977 Z M1436.663,3.326 C1491.88261,3.326 1533.17453,17.2528607 1560.54,45.107 C1587.90547,72.9611393 1601.588,117.18503 1601.588,177.78 L1601.588,427 L1474.046,427 L1474.046,177.78 C1474.046,157.744566 1469.03722,142.473886 1459.0195,131.9675 C1449.00178,121.461114 1432.02079,116.208 1408.076,116.208 C1379.73319,116.208 1350.65781,127.935883 1320.849,151.392 L1320.849,427 L1193.307,427 L1193.307,12.122 L1320.849,12.122 L1320.849,45.107 C1338.92976,30.9355958 1357.37674,20.4293675 1376.1905,13.588 C1395.00426,6.74663246 1415.16156,3.326 1436.663,3.326 Z M1827.555,439.461 C1792.85949,439.461 1762.19597,436.651195 1735.5635,431.0315 C1708.93103,425.411805 1681.19948,415.760735 1652.368,402.078 L1652.368,289.929 C1680.22214,305.566412 1708.32019,316.805632 1736.663,323.647 C1765.00581,330.488368 1795.30284,333.909 1827.555,333.909 C1859.31849,333.909 1875.2,324.380095 1875.2,305.322 C1875.2,297.503294 1873.00102,291.639353 1868.603,287.73 C1864.20498,283.820647 1857.11938,280.644346 1847.346,278.201 L1776.245,263.541 C1734.70812,255.233625 1704.41109,241.062434 1685.353,221.027 C1666.2949,200.991566 1656.766,173.626507 1656.766,138.931 C1656.766,92.0187654 1671.30369,57.2016136 1700.3795,34.4785 C1729.45531,11.7553864 1773.55704,0.394 1832.686,0.394 C1857.11945,0.394 1882.65203,2.8373089 1909.2845,7.724 C1935.91697,12.6106911 1961.20521,18.9632942 1985.15,26.782 L1985.15,135.266 C1966.58057,126.469956 1943.97997,119.38436 1917.3475,114.009 C1890.71503,108.63364 1864.69379,105.946 1839.283,105.946 C1819.24757,105.946 1805.3207,107.900647 1797.502,111.81 C1789.68329,115.719353 1785.774,121.827625 1785.774,130.135 C1785.774,136.487698 1787.72865,141.00782 1791.638,143.6955 C1795.54735,146.38318 1802.14429,148.704324 1811.429,150.659 L1882.53,165.319 C1925.53288,174.115044 1956.5629,188.530566 1975.621,208.566 C1994.67909,228.601434 2004.208,258.409802 2004.208,297.992 C2004.208,345.392904 1988.32649,380.820883 1956.563,404.277 C1924.79951,427.733117 1881.79727,439.461 1827.555,439.461 Z M2251.432,439.461 C2203.54243,439.461 2162.9835,429.80993 2129.754,410.5075 C2096.5245,391.20507 2071.48058,364.939499 2054.6215,331.71 C2037.76241,298.480501 2029.333,261.097874 2029.333,219.561 C2029.333,178.512795 2037.76241,141.374499 2054.6215,108.145 C2071.48058,74.9155005 2096.5245,48.6499298 2129.754,29.3475 C2162.9835,10.0450702 2203.54243,0.394 2251.432,0.394 C2298.8329,0.394 2339.1475,10.0450702 2372.377,29.3475 C2405.6065,48.6499298 2430.52825,74.9155005 2447.143,108.145 C2463.75775,141.374499 2472.065,178.512795 2472.065,219.561 C2472.065,261.097874 2463.75775,298.480501 2447.143,331.71 C2430.52825,364.939499 2405.6065,391.20507 2372.377,410.5075 C2339.1475,429.80993 2298.8329,439.461 2251.432,439.461 Z M2251.432,330.977 C2280.26348,330.977 2302.13109,321.448095 2317.0355,302.39 C2331.93991,283.331905 2339.392,255.722514 2339.392,219.561 C2339.392,183.888155 2331.93991,156.523095 2317.0355,137.465 C2302.13109,118.406905 2280.26348,108.878 2251.432,108.878 C2222.11185,108.878 2199.87774,118.406905 2184.729,137.465 C2169.58026,156.523095 2162.006,183.888155 2162.006,219.561 C2162.006,255.722514 2169.58026,283.331905 2184.729,302.39 C2199.87774,321.448095 2222.11185,330.977 2251.432,330.977 Z M2715.624,439.461 C2667.73443,439.461 2627.1755,429.80993 2593.946,410.5075 C2560.7165,391.20507 2535.67258,364.939499 2518.8135,331.71 C2501.95441,298.480501 2493.525,261.097874 2493.525,219.561 C2493.525,178.512795 2501.95441,141.374499 2518.8135,108.145 C2535.67258,74.9155005 2560.7165,48.6499298 2593.946,29.3475 C2627.1755,10.0450702 2667.73443,0.394 2715.624,0.394 C2763.0249,0.394 2803.3395,10.0450702 2836.569,29.3475 C2869.7985,48.6499298 2894.72025,74.9155005 2911.335,108.145 C2927.94975,141.374499 2936.257,178.512795 2936.257,219.561 C2936.257,261.097874 2927.94975,298.480501 2911.335,331.71 C2894.72025,364.939499 2869.7985,391.20507 2836.569,410.5075 C2803.3395,429.80993 2763.0249,439.461 2715.624,439.461 Z M2715.624,330.977 C2744.45548,330.977 2766.32309,321.448095 2781.2275,302.39 C2796.13191,283.331905 2803.584,255.722514 2803.584,219.561 C2803.584,183.888155 2796.13191,156.523095 2781.2275,137.465 C2766.32309,118.406905 2744.45548,108.878 2715.624,108.878 C2686.30385,108.878 2664.06974,118.406905 2648.921,137.465 C2633.77226,156.523095 2626.198,183.888155 2626.198,219.561 C2626.198,255.722514 2633.77226,283.331905 2648.921,302.39 C2664.06974,321.448095 2686.30385,330.977 2715.624,330.977 Z M3226.728,3.326 C3281.94761,3.326 3323.23953,17.2528607 3350.605,45.107 C3377.97047,72.9611393 3391.653,117.18503 3391.653,177.78 L3391.653,427 L3264.111,427 L3264.111,177.78 C3264.111,157.744566 3259.10221,142.473886 3249.0845,131.9675 C3239.06678,121.461114 3222.08578,116.208 3198.141,116.208 C3169.79819,116.208 3140.72281,127.935883 3110.914,151.392 L3110.914,427 L2983.372,427 L2983.372,12.122 L3110.914,12.122 L3110.914,45.107 C3128.99475,30.9355958 3147.44174,20.4293675 3166.2555,13.588 C3185.06926,6.74663246 3205.22656,3.326 3226.728,3.326 Z"></path>
            </g>
        </g>
    </svg>